<svg id="Capa_1" enable-background="new 0 0 512 512" height="512" viewBox="0 0 512 512" width="512" xmlns="http://www.w3.org/2000/svg"><g><g><g fill="#bc845e"><path d="m212.5 332.5v55c0 2.761-2.239 5-5 5h-50c-44.183 0-80 35.817-80 80v12c0 11.046 8.954 20 20 20h317c11.046 0 20-8.954 20-20v-12c0-44.183-35.817-80-80-80h-50c-2.761 0-5-2.239-5-5v-55z"/><path d="m353.5 198.5h36.5c16.845 0 30.5 13.655 30.5 30.5 0 16.845-13.655 30.5-30.5 30.5h-36.5z"/><path d="m168.5 198.5h-46.5c-16.845 0-30.5 13.655-30.5 30.5 0 16.845 13.655 30.5 30.5 30.5h46.5z"/></g><path d="m138.5 148.5v91.5c0 64.893 52.606 117.5 117.5 117.5 64.893 0 117.5-52.607 117.5-117.5v-90.375z" fill="#d19a6e"/><path d="m373.5 149.63v90.37c0 32.44-13.15 61.82-34.42 83.08-21.26 21.27-50.64 34.42-83.08 34.42-5.08 0-10.09-.32-15-.95 26.45-3.37 50.15-15.53 68.08-33.47 21.27-21.26 34.42-50.64 34.42-83.08v-90.37z" fill="#bc845e"/><path d="m373.5 149.63v90.37c0 6.64-.55 13.16-1.62 19.5h-231.76c-1.07-6.34-1.62-12.86-1.62-19.5v-91.5z" fill="#e2ab86"/><path d="m373.5 149.63v90.37c0 6.64-.55 13.16-1.62 19.5h-30c1.07-6.34 1.62-12.86 1.62-19.5v-90.37z" fill="#d19a6e"/><path d="m434.5 472.5v12c0 11.05-8.95 20-20 20h-317c-11.05 0-20-8.95-20-20v-12c0-26.33 12.72-49.69 32.35-64.27l27.79 29.02c5.66 5.91 13.49 9.25 21.67 9.25h193.38c8.18 0 16.01-3.34 21.67-9.25l27.79-29.02c19.63 14.58 32.35 37.94 32.35 64.27z" fill="#7bb1ff"/><path d="m434.5 472.5v12c0 11.05-8.95 20-20 20h-30c11.05 0 20-8.95 20-20v-12c0-18.52-6.29-35.56-16.86-49.12l14.51-15.15c19.63 14.58 32.35 37.94 32.35 64.27z" fill="#62a5f4"/><path d="m208.1 446.5h-48.79c-8.18 0-16.01-3.34-21.67-9.25l-27.79-29.02c13.05-9.68 29.15-15.5 46.6-15.71z" fill="#ccf49f"/><path d="m402.15 408.23-27.79 29.02c-5.66 5.91-13.49 9.25-21.67 9.25h-48.73l51.72-53.98c17.4.24 33.45 6.05 46.47 15.71z" fill="#ccf49f"/><path d="m402.15 408.23-14.5 15.15c-9.28-11.91-21.86-21.13-36.36-26.28l4.39-4.58c17.4.24 33.45 6.05 46.47 15.71z" fill="#b3e59f"/><path d="m355.68 392.52-67.17 70.11c-8.57 8.94-20.11 13.87-32.49 13.87-.01 0-.01 0-.02 0-12.39-.01-23.94-4.94-32.5-13.9l-67.05-70.08c.35-.02.7-.02 1.05-.02h40.45l47.23 49.36c2.85 2.99 6.7 4.63 10.83 4.64h.01c4.12 0 7.97-1.65 10.83-4.63l47.29-49.37h40.36c.4 0 .79 0 1.18.02z" fill="#fff"/><path d="m355.68 392.52-4.39 4.58c-8.38-2.98-17.39-4.6-26.79-4.6h30c.4 0 .79 0 1.18.02z" fill="#f4f4f4"/><path d="m168.5 168.5v40c0 11.046-8.954 20-20 20h-10v-30h-16.5c-4.85 0-9.43 1.13-13.5 3.15v-33.15z" fill="#6f6571"/><path d="m168.5 168.5v40c0 11.046-8.954 20-20 20h-10v-60z" fill="#827984"/><path d="m403.5 160.04v41.61c-4.07-2.02-8.65-3.15-13.5-3.15h-16.5v30h-10c-11.046 0-20-8.954-20-20v-46.05z" fill="#6f6571"/><path d="m403.5 168.5v33.15c-4.07-2.02-8.65-3.15-13.5-3.15h-16.5v-30z" fill="#5d5360"/><path d="m321.908 22.5h-131.816c-45.062 0-81.592 36.53-81.592 81.592v39.408h295v-39.408c0-45.062-36.53-81.592-81.592-81.592z" fill="#7bb1ff"/><path d="m418.5 133.5v25c0 5.523-4.477 10-10 10h-305c-5.523 0-10-4.477-10-10v-25c0-5.523 4.477-10 10-10h89.234c4.087 0 7.762 2.487 9.283 6.281l.973 2.429c1.51 3.8 5.19 6.29 9.28 6.29h87.46c4.09 0 7.77-2.49 9.28-6.29l.973-2.429c1.52-3.794 5.196-6.281 9.283-6.281h89.234c5.523 0 10 4.477 10 10z" fill="#edebed"/><path d="m287.085 52.5h-62.17c-8.609 0-16.251-5.509-18.974-13.675l-5.441-16.325v-5c0-5.523 4.477-10 10-10h91c5.523 0 10 4.477 10 10v5l-5.442 16.325c-2.722 8.166-10.365 13.675-18.973 13.675z" fill="#bde4ff"/><path d="m403.5 104.09v19.41h-30v-19.41c0-45.06-36.53-81.59-81.59-81.59h30c45.06 0 81.59 36.53 81.59 81.59z" fill="#62a5f4"/><path d="m403.5 104.09v19.41h-64l5.44-16.32c2.72-8.17 10.37-13.68 18.98-13.68h38.89c.46 3.47.69 7 .69 10.59z" fill="#bde4ff"/><path d="m403.5 104.09v19.41h-30v-19.41c0-3.59-.23-7.12-.69-10.59h30c.46 3.47.69 7 .69 10.59z" fill="#99dbff"/><path d="m172.5 123.5h-64v-19.41c0-3.59.23-7.12.69-10.59h38.89c8.61 0 16.26 5.51 18.98 13.68z" fill="#bde4ff"/><path d="m418.5 133.5v25c0 5.52-4.48 10-10 10h-30c5.52 0 10-4.48 10-10v-25c0-5.52-4.48-10-10-10h30c5.52 0 10 4.48 10 10z" fill="#dcd9dc"/><path d="m311.5 17.5v5l-5.44 16.32c-2.72 8.17-10.37 13.68-18.98 13.68h-30c8.61 0 16.26-5.51 18.98-13.68l5.44-16.32v-5c0-5.52-4.48-10-10-10h30c5.52 0 10 4.48 10 10z" fill="#99dbff"/></g><g><path d="m255.924 306.55c14.607 0 29.245-5.151 41.487-15.452 3.169-2.667 3.577-7.398.91-10.567-2.667-3.17-7.398-3.577-10.567-.91-18.784 15.805-44.888 15.813-63.481.022-3.158-2.681-7.891-2.294-10.572.862-2.681 3.157-2.295 7.89.862 10.572 12.147 10.316 26.739 15.473 41.361 15.473z"/><path d="m196.5 207c-4.142 0-7.5 3.358-7.5 7.5v15c0 4.142 3.358 7.5 7.5 7.5s7.5-3.358 7.5-7.5v-15c0-4.142-3.358-7.5-7.5-7.5z"/><path d="m315.5 207c-4.142 0-7.5 3.358-7.5 7.5v15c0 4.142 3.358 7.5 7.5 7.5s7.5-3.358 7.5-7.5v-15c0-4.142-3.358-7.5-7.5-7.5z"/><path d="m354.5 385h-47.5v-30.886c35.619-15.982 62.445-48.164 71.054-87.114h11.946c20.953 0 38-17.047 38-38 0-13.194-6.762-24.834-17-31.65v-21.55c8.466-1.22 15-8.502 15-17.3v-25c0-8.798-6.534-16.081-15-17.3v-12.107c0-49.126-39.967-89.093-89.092-89.093h-3.108c-1.22-8.466-8.502-15-17.3-15h-91c-8.798 0-16.081 6.534-17.3 15h-3.107c-13.696 0-26.838 3.027-39.06 8.999-3.722 1.818-5.265 6.309-3.447 10.031 1.301 2.663 3.968 4.21 6.744 4.209 1.105 0 2.228-.245 3.287-.763 10.154-4.961 21.08-7.476 32.475-7.476h5.002l3.732 11.196c3.749 11.247 14.234 18.804 26.089 18.804h62.17c11.855 0 22.34-7.557 26.089-18.804l3.732-11.196h5.002c34.615 0 63.753 23.863 71.849 56h-29.841c-11.855 0-22.34 7.557-26.089 18.804l-3.733 11.196h-14.828c-7.193 0-13.57 4.314-16.244 10.991l-.982 2.45c-.376.947-1.283 1.559-2.31 1.559h-87.46c-1.027 0-1.934-.612-2.318-1.58l-.973-2.428c-2.675-6.677-9.051-10.992-16.245-10.992h-14.828l-3.732-11.196c-3.749-11.247-14.234-18.804-26.089-18.804h-29.822c2.64-10.469 7.535-20.324 14.424-28.755 2.621-3.208 2.146-7.933-1.062-10.553-3.207-2.621-7.932-2.146-10.553 1.062-12.944 15.84-20.072 35.848-20.072 56.338v12.108c-8.466 1.22-15 8.502-15 17.3v25c0 8.798 6.534 16.081 15 17.3v21.55c-10.237 6.815-17 18.456-17 31.65 0 20.953 17.047 38 38 38h11.946c8.61 38.949 35.435 71.132 71.054 87.114v30.886h-47.5c-48.248 0-87.5 39.252-87.5 87.5v12c0 15.164 12.336 27.5 27.5 27.5h261c4.142 0 7.5-3.358 7.5-7.5s-3.358-7.5-7.5-7.5h-261c-6.893 0-12.5-5.607-12.5-12.5v-12c0-21.464 9.384-40.77 24.254-54.056l22.969 23.99c7.037 7.351 16.91 11.566 27.086 11.566h45.582l13.185 13.781c9.981 10.448 23.447 16.208 37.943 16.219 14.441 0 27.903-5.746 37.905-16.182l13.24-13.818h45.526c10.177 0 20.049-4.216 27.086-11.566l22.969-23.99c14.871 13.286 24.255 32.592 24.255 54.056v12c0 6.893-5.607 12.5-12.5 12.5h-21c-4.142 0-7.5 3.358-7.5 7.5s3.358 7.5 7.5 7.5h21c15.164 0 27.5-12.336 27.5-27.5v-12c0-48.248-39.252-87.5-87.5-87.5zm-50.5-363.717-5.057 15.17c-1.704 5.112-6.47 8.547-11.858 8.547h-62.17c-5.389 0-10.154-3.435-11.858-8.547l-5.057-15.17v-3.783c0-1.378 1.122-2.5 2.5-2.5h91c1.378 0 2.5 1.122 2.5 2.5zm-143 154.717v32.5c0 6.893-5.607 12.5-12.5 12.5h-2.5v-45zm-15 64v-4h2.5c15.164 0 27.5-12.336 27.5-27.5v-32.5h160v32.5c0 15.164 12.336 27.5 27.5 27.5h2.5v4c0 4.055-.227 8.057-.657 12h-218.686c-.43-3.943-.657-7.945-.657-12zm220-19h-2.5c-6.893 0-12.5-5.607-12.5-12.5v-32.5h15zm24 31h-9.579c.378-3.95.579-7.952.579-12v-3.5h9.5c4.142 0 7.5-3.358 7.5-7.5s-3.358-7.5-7.5-7.5h-9.5v-15.5h9c12.682 0 23 10.318 23 23s-10.318 23-23 23zm0-61h-9v-15h15v15.478c-1.955-.311-3.958-.478-6-.478zm-37.943-81.453c1.704-5.112 6.47-8.547 11.858-8.547h32.006c.042 1.027.078 2.055.078 3.092v11.908h-46.094zm-203.972-8.547c5.389 0 10.154 3.435 11.858 8.547l2.151 6.453h-46.094v-11.908c0-1.032.024-2.063.067-3.092zm-47.085 32.5c0-1.378 1.122-2.5 2.5-2.5h89.234c1.028 0 1.938.616 2.321 1.571l.965 2.408c2.66 6.695 9.039 11.021 16.25 11.021h87.46c7.211 0 13.59-4.326 16.241-11l.974-2.43c.382-.954 1.293-1.57 2.321-1.57h89.234c1.378 0 2.5 1.122 2.5 2.5v25c0 1.378-1.122 2.5-2.5 2.5h-305c-1.378 0-2.5-1.122-2.5-2.5zm15 42.5h15v15h-9c-2.042 0-4.045.167-6 .478zm6 76c-12.682 0-23-10.318-23-23s10.318-23 23-23h9v15.5h-9.5c-4.142 0-7.5 3.358-7.5 7.5s3.358 7.5 7.5 7.5h9.5v3.5c0 4.048.201 8.05.579 12zm27.357 15h213.286c-8.974 35.428-35.181 64.061-69.143 76.414v-5.914c0-4.142-3.358-7.5-7.5-7.5s-7.5 3.358-7.5 7.5v10.183c-4.89 1.02-9.898 1.711-15 2.056v-20.239c0-4.142-3.358-7.5-7.5-7.5s-7.5 3.358-7.5 7.5v20.239c-5.102-.345-10.11-1.036-15-2.056v-10.183c0-4.142-3.358-7.5-7.5-7.5s-7.5 3.358-7.5 7.5v5.914c-33.962-12.353-60.169-40.986-69.143-76.414zm106.643 98c12.511 0 24.594-1.856 36-5.292v27.792c0 4.599 2.503 8.615 6.212 10.786l-36.773 38.391c-1.458 1.52-3.333 2.323-5.412 2.323-2.106-.005-3.98-.806-5.429-2.325l-36.761-38.419c3.681-2.177 6.163-6.177 6.163-10.756v-27.792c11.406 3.436 23.489 5.292 36 5.292zm-96.69 74c-6.106 0-12.029-2.529-16.251-6.94l-21.518-22.474c9.476-5.438 20.281-8.805 31.807-9.459l37.193 38.873zm123.785 18.44c-7.146 7.455-16.761 11.56-27.089 11.56-10.338-.008-19.956-4.121-27.087-11.585l-54.933-57.415h20.76l45.005 47.035c4.268 4.477 10.036 6.951 16.269 6.965 6.181 0 11.948-2.463 16.246-6.942l45.075-47.058h20.786zm85.846-25.379c-4.222 4.41-10.146 6.939-16.251 6.939h-31.155l37.234-38.864c11.482.671 22.246 4.031 31.689 9.45z"/></g></g></svg>