<?xml version="1.0" encoding="iso-8859-1"?>
<!-- Generator: Adobe Illustrator 19.0.0, SVG Export Plug-In . SVG Version: 6.00 Build 0)  -->
<svg version="1.1" id="Capa_1" xmlns="http://www.w3.org/2000/svg" xmlns:xlink="http://www.w3.org/1999/xlink" x="0px" y="0px"
	 viewBox="0 0 512 512" style="enable-background:new 0 0 512 512;" xml:space="preserve">
<path style="fill:#93482B;" d="M81.848,7.5c-20.016,0-35.576,16.723-35.31,34.928h-0.004v427.041
	c0.269-19.279,15.971-34.826,35.314-34.826h0.005c14.199,0,379.926,0,364.437,0c10.591,0,19.176-8.586,19.176-19.176
	c0-4.714,0-394.807,0-390.409c0-9.697-7.86-17.558-17.558-17.558C299.526,7.5,247.524,7.5,81.848,7.5z"/>
<path style="fill:#843C25;" d="M117.633,42.429h0.004C117.378,24.285,132.856,7.5,152.947,7.5c-15.178,0-55.926,0-71.099,0
	c-20.035,0-35.57,16.737-35.31,34.928h-0.004v427.041c0.269-19.279,15.971-34.826,35.314-34.826h0.005h35.78V42.429z"/>
<path style="fill:#773423;" d="M84.267,7.5c-0.105,0-2.567,0-2.419,0c-20.016,0-35.576,16.723-35.31,34.928h-0.004v427.041
	c0.269-19.279,15.971-34.826,35.314-34.826h0.005h2.414V7.5z"/>
<g>
	<path style="fill:#FFB70D;" d="M370.613,207.447c5.413-2.556,9.469-7.653,10.386-14.098c0.401-2.829,0.501-5.54,0.499-5.487
		c0.054-1.286-0.981-2.346-2.261-2.346h-60.275c-1.279,0-2.314,1.06-2.261,2.338c0.362,8.707,2.572,15.6,10.97,19.637
		c5.61,2.678,6.182,5.407,10.506,5.407h21.846c2.781,0,4.813-1.664,4.813-1.664C366.554,209.732,368.602,208.393,370.613,207.447z"
		/>
	<path style="fill:#FFB70D;" d="M203.798,207.447c6.849-3.234,9.932-9.056,10.66-16.416c0.159-1.621,0.231-3.334,0.224-3.169
		c0.054-1.286-0.981-2.346-2.261-2.346h-60.275c-2.285,0-2.316,2.497-2.26,2.362c0.083,1.953,0.272,3.948,0.597,6.079
		c0.958,5.651,4.545,10.733,10.372,13.534c5.602,2.674,6.169,5.407,10.506,5.407h21.846
		C197.569,212.897,198.238,210.064,203.798,207.447z"/>
</g>
<path style="fill:#F2A306;" d="M190.309,207.447c-8.156-3.851-10.42-10.748-10.885-19.593c-0.053-1.278,0.982-2.338,2.261-2.338
	h-29.538c-2.285,0-2.316,2.497-2.26,2.362c0.09,2.116,0.297,4.115,0.597,6.079c0.96,5.662,4.56,10.747,10.372,13.534
	c5.606,2.679,6.164,5.407,10.506,5.407c20.707-0.475,22.168,0.903,25.693-1.043C195.54,211.018,194.185,209.267,190.309,207.447z"/>
<path style="fill:#EAE4D6;" d="M81.848,434.643c-19.343,0-35.045,15.548-35.314,34.826c0.269,19.279,15.971,34.827,35.314,34.827
	v0.203c18.804,0,327.851,0,345.761,0v-69.856C407.774,434.643,102.897,434.643,81.848,434.643z"/>
<path style="fill:#DDD3C0;" d="M106.537,469.469c0.269-19.279,15.971-34.826,35.314-34.826c-7.396,0-53.138,0-60.004,0
	c-19.343,0-35.045,15.547-35.314,34.826c0.269,19.279,15.971,34.827,35.314,34.827v0.203h60.004v-0.203
	C122.508,504.297,106.806,488.749,106.537,469.469z"/>
<path style="fill:#773423;" d="M446.29,434.643c-3.696,0-15.006,0-18.681,0V504.5c3.668,0,14.942,0,18.646,0
	c10.611,0,19.211-8.602,19.211-19.211v-69.821C465.466,426.058,456.881,434.643,446.29,434.643z"/>
<path style="fill:#843C25;" d="M446.254,469.469c-3.704,0-14.977,0-18.646,0v35.03c3.668,0,14.942,0,18.646,0
	c10.611,0,19.212-8.602,19.212-19.211v-35.031C465.466,460.868,456.865,469.469,446.254,469.469z"/>
<path style="fill:#F94A46;" d="M117.633,434.643v38.612c0,2.372,2.618,3.81,4.62,2.538L140.6,464.14
	c1.678-1.066,3.821-1.066,5.499,0l18.089,11.491c2.113,1.342,4.876-0.176,4.876-2.68v-38.308h-51.431V434.643z"/>
<path style="fill:#EF3C3C;" d="M143.349,434.643h-25.716v38.612c0,2.372,2.617,3.81,4.62,2.538
	c18.803-11.626,18.472-12.453,21.095-12.453V434.643z"/>
<circle style="fill:#666666;" cx="265.416" cy="97.666" r="15.927"/>
<path style="fill:#535454;" d="M265.424,81.746c-12.146-0.017-19.965,13.2-13.8,23.877c4.398,7.617,14.139,10.228,21.756,5.829
	c2.515-1.452,4.471-3.493,5.822-5.842C266.952,105.593,259.304,92.384,265.424,81.746z"/>
<path style="fill:#FFB70D;" d="M271.41,205.222h-11.987c-8.169,0-14.792,6.622-14.792,14.792v16.866h41.57v-16.866
	C286.202,211.846,279.58,205.222,271.41,205.222z"/>
<path style="fill:#F2A306;" d="M275.81,205.887c-3.512-1.092-5.362-0.494-16.386-0.665c-8.169,0-14.792,6.622-14.792,14.792v16.866
	h20.784v-16.866C265.417,213.377,269.789,207.762,275.81,205.887z"/>
<path style="fill:#666666;" d="M301.522,249.597L301.522,249.597c0-8.17-6.622-14.791-14.791-14.791h-41.989
	c-8.17,0-14.792,6.622-14.792,14.791l0,0c0,8.168,6.622,14.791,14.792,14.791h41.989
	C294.901,264.389,301.522,257.767,301.522,249.597z"/>
<path style="fill:#535454;" d="M264.258,249.597c0-8.169,6.622-14.792,14.792-14.792h-34.306c-8.17,0-14.792,6.622-14.792,14.792
	c0,8.169,6.622,14.792,14.792,14.792h34.306C270.88,264.389,264.258,257.766,264.258,249.597z"/>
<path style="fill:#F2A306;" d="M357.209,207.491c-8.155-3.912-10.492-10.536-10.97-19.637c-0.053-1.278,0.982-2.338,2.261-2.338
	h-29.538c-1.279,0-2.314,1.06-2.261,2.338c0.433,8.256,2.168,15.415,10.97,19.637c5.607,2.679,6.189,5.407,10.506,5.407
	c20.707-0.475,22.168,0.903,25.693-1.043C362.307,210.992,361.161,209.379,357.209,207.491z"/>
<path d="M373.94,216.169c10.67-5.106,14.607-14.438,15.052-25.996c0.23-5.51-4.183-10.16-9.755-10.16h-1.526L356.6,129.633v-0.252
	c1.056-0.01,2.117-0.023,3.172-0.07c4.138-0.183,7.345-3.685,7.163-7.823c-0.183-4.137-3.668-7.319-7.823-7.163
	c-0.836,0.038-1.675,0.047-2.512,0.056v-2.88c0-4.143-3.357-7.5-7.5-7.5s-7.5,3.357-7.5,7.5v1.509
	c-30.416-6.063-30.467-22.988-52.713-22.988h-1.327c-2.362-6.826-7.794-12.227-14.641-14.548v-4.773c0-4.143-3.357-7.5-7.5-7.5
	s-7.5,3.357-7.5,7.5v4.773c-6.847,2.321-12.281,7.725-14.643,14.554c-0.646,0.106-12.343-1.115-22.844,7.813
	c-6.68,5.68-16.875,12.179-30.646,15.056v-1.39c0-4.143-3.357-7.5-7.5-7.5c-4.143,0-7.5,3.357-7.5,7.5v2.906
	c-4.054,0.101-7.311,3.412-7.311,7.49c0,4.078,3.256,7.389,7.311,7.49v0.244l-21.109,50.377c-0.599,0.097-5.041-0.684-8.582,3.009
	c-3.601,3.754-2.919,8.247-2.005,14.188c1.345,7.937,6.394,15.119,14.534,19.048c3.738,1.783,6.615,6.14,13.738,6.14h21.846
	c5.198,0,8.882-2.802,9.567-3.363c2.063-1.691,2.454-1.894,4.336-2.858c10.596-5.062,14.565-14.415,15.066-25.995
	c0.138-5.929-4.483-10.168-9.756-10.168h-1.527l-21.109-50.377v-1.504c19.474-3.383,33.214-12.787,40.362-18.865
	c5.741-4.881,12.596-4.173,13.036-4.24c2.311,6.955,7.796,12.471,14.734,14.822v77.931c-14.978,1.006-24.755,16.358-19.24,30.372
	c-9.352,2.649-16.226,11.257-16.226,21.445c0,12.292,10.001,22.292,22.292,22.292h41.988c12.292,0,22.291-10.001,22.291-22.292
	c0-10.398-7.156-19.153-16.802-21.605c5.383-13.995-4.405-29.211-19.303-30.212v-77.931c6.938-2.352,12.426-7.869,14.736-14.828
	c0.531,0.082,7.119-0.707,12.939,4.24c7.227,6.145,21.192,15.689,41.006,18.976v1.396l-21.111,50.381
	c-0.599,0.097-5.039-0.684-8.58,3.009c-3.095,3.227-2.718,7.256-2.701,7.156c0,12.945,6.091,21.667,15.23,26.079
	c3.857,1.84,6.647,6.14,13.738,6.14h21.847C366.822,222.398,369.16,218.647,373.94,216.169z M171.281,207.412l-0.001-0.002
	c0.007,0,0.219,0.188,0.219,0.188C171.443,207.551,171.337,207.458,171.281,207.412z M193.258,207.436
	c-0.038,0.03-0.055-0.035-0.052-0.038c-32.097-0.073-16.366,1.322-29.233-4.733c-3.132-1.479-5.368-4.322-6.036-7.648h48.695
	C205.195,202.167,199.616,201.995,193.258,207.436z M194.63,180.014h-24.69l12.346-29.462L194.63,180.014z M294.022,249.597
	c0,4.021-3.271,7.291-7.29,7.291h-41.988c-4.021,0-7.291-3.271-7.291-7.291c0-4.02,3.271-7.29,7.291-7.29
	c15.594,0,28.018,0,41.988,0C290.751,242.307,294.022,245.578,294.022,249.597z M278.702,220.014c0,4.021-3.271,7.291-7.29,7.291
	h-11.987c-4.02,0-7.29-3.271-7.29-7.291s3.271-7.29,7.29-7.29h11.987C275.431,212.724,278.702,215.994,278.702,220.014z
	 M265.417,106.086c-4.646,0-8.427-3.779-8.427-8.427c0-4.646,3.779-8.426,8.427-8.426s8.427,3.779,8.427,8.426
	C273.844,102.307,270.064,106.086,265.417,106.086z M349.099,150.547l12.348,29.467h-24.694L349.099,150.547z M338.098,207.412
	c0.286,0.245,0.188,0.161,0.209,0.18C338.307,207.592,338.182,207.486,338.098,207.412z M332.956,203.796
	c-3.633-1.972-7.156-3.563-8.204-8.782h48.696c-1.448,7.213-7.303,7.212-13.375,12.421c-0.019,0.022-0.055-0.035-0.055-0.035
	C331.714,207.332,341.219,208.647,332.956,203.796z"/>
<path d="M336.055,303.81H194.78c-4.143,0-7.5,3.357-7.5,7.5c0,4.143,3.357,7.5,7.5,7.5h141.277c4.143,0,7.5-3.357,7.5-7.5
	C343.557,307.168,340.199,303.81,336.055,303.81z"/>
<path d="M336.055,335.31H194.78c-4.143,0-7.5,3.357-7.5,7.5s3.357,7.5,7.5,7.5h141.277c4.143,0,7.5-3.357,7.5-7.5
	S340.199,335.31,336.055,335.31z"/>
<path d="M336.055,366.811H194.78c-4.143,0-7.5,3.357-7.5,7.5s3.357,7.5,7.5,7.5h141.277c4.143,0,7.5-3.357,7.5-7.5
	S340.199,366.811,336.055,366.811z"/>
<path d="M465.466,364.311c4.143,0,7.5-3.357,7.5-7.5V25.059C472.967,11.241,461.725,0,447.908,0C431.661,0,98.246,0,81.848,0
	C58.074,0,39.033,19.685,39.033,42.43c0,25.45,0.001,402.522,0.001,427.059c0,22.863,19.64,42.512,42.814,42.512h238.549
	c4.143,0,7.5-3.357,7.5-7.5s-3.357-7.5-7.5-7.5c-0.102,0-238.387-0.203-238.549-0.203c-21.821,0-36.38-24.986-22.108-43.649
	c4.818-6.303,12.235-10.518,20.704-10.969c1.224-0.062,29.586-0.036,29.69-0.036v31.112c0,8.271,9.149,13.309,16.142,8.871
	l17.074-10.847l16.818,10.685c7.115,4.511,16.397-0.619,16.397-9.013v-30.809h243.544v54.856H355.4c-4.143,0-7.5,3.357-7.5,7.5
	s3.357,7.5,7.5,7.5c10.71,0,79.128,0,90.856,0c14.729,0,26.712-11.983,26.712-26.712c0-11.398,0-85.349,0-93.476
	c0-4.143-3.357-7.5-7.5-7.5s-7.5,3.357-7.5,7.5v23.653c0,5.23-3.458,9.669-8.207,11.15c-2.829,0.882-351.238,0.533-357.991,0.526
	V93.718c0-4.143-3.357-7.5-7.5-7.5s-7.5,3.357-7.5,7.5v333.728c-8.582,1.039-16.473,4.674-22.731,10.05
	C54.925,33.5,51.093,39.919,58.089,28.425c4.09-6.699,10.906-11.511,18.678-12.945v43.236c0,4.143,3.357,7.5,7.5,7.5
	s7.5-3.357,7.5-7.5V15.001h356.141c5.545,0,10.058,4.512,10.058,10.058v331.752C457.966,360.954,461.323,364.311,465.466,364.311z
	 M435.109,442.143c7.814-0.534,14.457,1.437,22.855-2.693v45.839c0,6.457-5.253,11.711-11.711,11.711h-11.146L435.109,442.143
	L435.109,442.143z M125.134,442.143h36.43v22.936c-9.889-5.754-12.32-9.229-18.214-9.229c-5.903,0-8.348,3.485-18.216,9.228
	C125.134,465.078,125.134,442.143,125.134,442.143z"/>
<g>
</g>
<g>
</g>
<g>
</g>
<g>
</g>
<g>
</g>
<g>
</g>
<g>
</g>
<g>
</g>
<g>
</g>
<g>
</g>
<g>
</g>
<g>
</g>
<g>
</g>
<g>
</g>
<g>
</g>
</svg>
