<svg height="512pt" viewBox="0 -1 512 512" width="512pt" xmlns="http://www.w3.org/2000/svg"><path d="m282.648438 451.171875 48.710937-18.882813c4.753906 5.253907 9.878906 10.859376 14.792969 16.203126 12.441406 13.53125 33.789062 13.53125 46.230468 0 5.003907-5.4375 10.238282-11.160157 15.0625-16.496094l49.519532 19.175781s5.984375 2.46875 11.902344 8.351563c22.113281-23.996094 35.625-56.039063 35.625-91.242188 0-74.386719-60.300782-134.6875-134.683594-134.6875-74.382813 0-134.683594 60.300781-134.683594 134.6875 0 35.203125 13.511719 67.246094 35.625 91.242188 5.914062-5.882813 11.898438-8.351563 11.898438-8.351563zm0 0" fill="#00aaf0"/><path d="m282.648438 451.171875 12.414062-4.8125c-15.699219-22.023437-24.9375-48.972656-24.9375-78.078125 0-68.457031 51.066406-124.976562 117.183594-133.554688-5.730469-.746093-11.570313-1.132812-17.5-1.132812-74.386719 0-134.6875 60.300781-134.6875 134.6875 0 35.203125 13.515625 67.246094 35.628906 91.242188 5.914062-5.882813 11.898438-8.351563 11.898438-8.351563zm0 0" fill="#059adb"/><path d="m441.167969 161.855469-8.582031 49.398437c-.644532 3.71875-4.898438 5.554688-8.046876 3.46875l-41.792968-27.695312c-3.46875-2.296875-3-7.523438.816406-9.171875l50.375-21.703125c3.820312-1.644532 7.941406 1.605468 7.230469 5.703125zm0 0" fill="#ffc850"/><path d="m416.082031 187.027344c-3.46875-2.296875-3-7.523438.816407-9.171875l23.226562-10.003907 1.042969-5.996093c.710937-4.097657-3.410157-7.347657-7.230469-5.703125l-50.375 21.703125c-3.816406 1.644531-4.285156 6.875-.816406 9.171875l41.792968 27.695312c3.148438 2.085938 7.402344.25 8.046876-3.46875l2.070312-11.917968zm0 0" fill="#feb644"/><path d="m59.082031 345.765625 8.578125-49.398437c.648438-3.71875 4.902344-5.550782 8.050782-3.464844l41.792968 27.691406c3.46875 2.296875 3 7.527344-.820312 9.171875l-50.375 21.703125c-3.816406 1.648438-7.9375-1.605469-7.226563-5.703125zm0 0" fill="#ffc850"/><path d="m98.929688 308.285156-23.21875-15.382812c-3.148438-2.085938-7.402344-.253906-8.050782 3.46875l-8.578125 49.398437c-.710937 4.09375 3.410157 7.347657 7.226563 5.703125l27.148437-11.699218zm0 0" fill="#feb644"/><path d="m456.964844 449.171875-49.519532-19.175781c-4.824218 5.335937-10.058593 11.054687-15.0625 16.496094-12.441406 13.53125-33.789062 13.53125-46.230468 0-4.914063-5.34375-10.039063-10.949219-14.792969-16.203126l-48.710937 18.882813s-6.640626 2.734375-12.847657 9.316406c24.648438 27.308594 60.320313 44.476563 100.007813 44.476563 39.683594 0 75.355468-17.167969 100.003906-44.476563-6.207031-6.582031-12.847656-9.316406-12.847656-9.316406zm0 0" fill="#e4eaf8"/><path d="m387.289062 501.832031c-38.65625-5.023437-72.164062-26.441406-93.328124-57.046875l-11.3125 4.386719s-6.640626 2.734375-12.847657 9.316406c25.320313 28.054688 61.355469 44.476563 100.003907 44.476563 5.757812 0 11.875-.40625 17.484374-1.132813zm0 0" fill="#d8dce5"/><path d="m396.855469 425.894531c-1.90625-.738281-3.164063-2.574219-3.164063-4.621093v-19.21875c-6.777344 4.675781-14.980468 7.421874-23.816406 7.421874-9.246094 0-17.375-2.539062-24.019531-6.785156v18.585938c0 2.042968-1.257813 3.878906-3.164063 4.617187l-12.472656 4.835938c5.0625 5.605469 10.625 11.691406 15.929688 17.460937 12.441406 13.527344 33.796874 13.527344 46.238281-.003906 5.394531-5.867188 11.0625-12.066406 16.195312-17.75zm0 0" fill="#f0a479"/><path d="m374.75 409.195312c-1.597656.183594-3.226562.28125-4.875.28125-9.246094 0-17.371094-2.539062-24.019531-6.789062v18.585938c0 2.046874-1.257813 3.882812-3.164063 4.621093l-12.472656 4.835938c5.0625 5.605469 10.628906 11.691406 15.929688 17.457031 7.574218 8.234375 18.445312 11.449219 28.601562 9.660156zm0 0" fill="#e5966e"/><path d="m327.59375 341.453125v-2.71875c0-2.265625 1.933594-4.058594 4.179688-3.886719 22.132812 1.589844 43.667968-4.457031 60.695312-15.582031 1.589844-1.039063 3.695312-.78125 4.988281.609375 14.558594 15.648438 13.484375 14.054688 13.484375 16.097656v3.207032.113281 2.109375c5.597656-.363282 11.871094 1.679687 15.5625 5.101562v-24.246094c0-31.613281-25.625-57.238281-57.238281-57.238281s-57.238281 25.625-57.238281 57.238281v24.707032c3.890625-3.550782 10.398437-5.679688 15.566406-5.511719zm0 0" fill="#5e6377"/><path d="m339.386719 322.257812c0-26.894531 18.554687-49.449218 43.558593-55.582031-4.382812-1.074219-8.960937-1.65625-13.679687-1.65625-31.613281 0-57.238281 25.625-57.238281 57.238281v24.707032c3.890625-3.550782 10.398437-5.679688 15.566406-5.511719v-2.71875c0-2.265625 1.933594-4.058594 4.179688-3.886719 2.546874.183594 5.085937.253906 7.613281.238282zm0 0" fill="#52586d"/><path d="m411.640625 338.445312v31.527344c0 .398438-.019531.792969-.03125 1.1875 10.601563.695313 20.078125-7.003906 20.078125-16.355468 0-9.371094-9.480469-17.035157-20.046875-16.359376zm0 0" fill="#f0a479"/><path d="m327.132812 369.972656v-31.476562c-9.542968-.304688-20.289062 6.824218-20.289062 16.308594 0 9.34375 9.578125 17.050781 20.320312 16.355468-.011718-.394531-.03125-.789062-.03125-1.1875zm0 0" fill="#f0a479"/><path d="m426.511719 343.648438c-3.753907-3.472657-9.144531-5.570313-14.871094-5.203126v31.527344c0 .398438-.019531.789063-.03125 1.1875 5.746094.375 11.148437-1.726562 14.902344-5.207031zm0 0" fill="#e5966e"/><path d="m327.132812 366.140625c-3.324218-2.960937-5.414062-6.972656-5.414062-11.335937 0-4.257813 2.167969-8.035157 5.414062-10.882813v-5.425781c-9.542968-.304688-20.289062 6.824218-20.289062 16.308594 0 9.339843 9.578125 17.050781 20.320312 16.355468-.011718-.394531-.03125-.789062-.03125-1.1875zm0 0" fill="#e5966e"/><path d="m397.457031 315.929688c-1.292969-1.386719-3.398437-1.648438-4.988281-.609376-17.027344 11.125-39.550781 18.15625-61.683594 16.566407-2.242187-.167969-4.179687 1.621093-4.179687 3.890625v34.195312c0 21.976563 17.21875 42.050782 43.269531 42.050782 23.1875 0 42.050781-18.867188 42.050781-42.050782v-36.957031c0-2.042969.089844-1.4375-14.46875-17.085937zm0 0" fill="#f7b594"/><path d="m354.152344 369.972656v-39.453125c-7.664063 1.394531-15.535156 1.929688-23.367188 1.367188-2.242187-.167969-4.179687 1.621093-4.179687 3.890625v34.195312c0 21.976563 17.21875 42.050782 43.269531 42.050782 4.660156 0 9.140625-.773438 13.335938-2.179688-17.914063-5.761719-29.058594-22.195312-29.058594-39.871094zm0 0" fill="#f0a479"/><path d="m55.019531 225.152344 48.710938-18.882813c4.753906 5.257813 9.878906 10.859375 14.792969 16.203125 12.441406 13.535156 33.789062 13.53125 46.234374 0 5-5.4375 10.234376-11.160156 15.058594-16.496094l49.519532 19.175782s5.984374 2.46875 11.902343 8.351562c22.113281-23.996094 35.625-56.039062 35.625-91.242187 0-74.386719-60.300781-134.6875-134.683593-134.6875-74.386719 0-134.6875 60.300781-134.6875 134.6875 0 35.203125 13.515624 67.246093 35.628906 91.242187 5.914062-5.882812 11.898437-8.351562 11.898437-8.351562zm0 0" fill="#f25c5c"/><path d="m55.019531 225.152344 12.414063-4.8125c-15.699219-22.023438-24.9375-48.972656-24.9375-78.078125 0-68.453125 51.066406-124.976563 117.183594-133.554688-5.730469-.742187-11.570313-1.132812-17.5-1.132812-74.386719 0-134.6875 60.300781-134.6875 134.6875 0 35.203125 13.515624 67.246093 35.628906 91.242187 5.914062-5.882812 11.898437-8.351562 11.898437-8.351562zm0 0" fill="#e54a4a"/><path d="m229.335938 223.152344-49.519532-19.175782c-4.824218 5.335938-10.058594 11.058594-15.058594 16.496094-12.445312 13.53125-33.792968 13.535156-46.234374 0-4.914063-5.34375-10.039063-10.945312-14.792969-16.203125l-48.710938 18.882813s-6.640625 2.734375-12.847656 9.320312c24.648437 27.308594 60.324219 44.472656 100.007813 44.472656 39.683593 0 75.355468-17.164062 100.003906-44.472656-6.207032-6.585937-12.847656-9.320312-12.847656-9.320312zm0 0" fill="#e4eaf8"/><path d="m159.660156 275.8125c-38.65625-5.019531-72.164062-26.4375-93.328125-57.042969l-11.3125 4.382813s-6.640625 2.734375-12.847656 9.320312c25.320313 28.054688 61.355469 44.472656 100.003906 44.472656 5.757813 0 11.875-.40625 17.484375-1.132812zm0 0" fill="#d8dce5"/><path d="m169.230469 199.875c-1.910157-.738281-3.167969-2.574219-3.167969-4.621094v-19.21875c-6.773438 4.675782-14.976562 7.421875-23.816406 7.421875-9.246094 0-17.371094-2.539062-24.019532-6.785156v18.582031c0 2.046875-1.257812 3.882813-3.164062 4.621094l-12.472656 4.835938c5.0625 5.605468 10.628906 11.691406 15.929687 17.460937 12.445313 13.527344 33.796875 13.527344 46.238281-.003906 5.398438-5.867188 11.066407-12.066407 16.195313-17.75zm0 0" fill="#f0a479"/><path d="m147.121094 183.175781c-1.597656.183594-3.222656.28125-4.871094.28125-9.25 0-17.375-2.539062-24.023438-6.785156v18.582031c0 2.046875-1.253906 3.882813-3.164062 4.621094l-12.472656 4.835938c5.0625 5.605468 10.628906 11.691406 15.933594 17.460937 7.570312 8.234375 18.441406 11.445313 28.597656 9.65625zm0 0" fill="#e5966e"/><path d="m99.964844 115.433594v-2.71875c0-2.265625 1.933594-4.058594 4.179687-3.886719 22.132813 1.589844 43.667969-4.457031 60.695313-15.582031 1.589844-1.039063 3.695312-.78125 4.988281.609375 14.558594 15.648437 13.484375 14.058593 13.484375 16.101562v3.207031.109376 2.109374c5.597656-.359374 11.871094 1.679688 15.566406 5.101563v-24.246094c0-31.613281-25.628906-57.238281-57.242187-57.238281s-57.238281 25.625-57.238281 57.238281v24.707031c3.890624-3.550781 10.398437-5.679687 15.566406-5.511718zm0 0" fill="#5e6377"/><path d="m111.757812 96.238281c0-26.894531 18.554688-49.449219 43.558594-55.582031-4.382812-1.074219-8.960937-1.65625-13.679687-1.65625-31.613281 0-57.238281 25.625-57.238281 57.238281v24.707031c3.890624-3.550781 10.398437-5.679687 15.566406-5.511718v-2.71875c0-2.265625 1.933594-4.058594 4.179687-3.886719 2.546875.183594 5.085938.253906 7.613281.238281zm0 0" fill="#52586d"/><path d="m184.011719 112.425781v31.527344c0 .398437-.019531.792969-.03125 1.1875 10.601562.695313 20.078125-7.003906 20.078125-16.355469 0-9.371094-9.480469-17.035156-20.046875-16.359375zm0 0" fill="#f0a479"/><path d="m99.507812 143.953125v-31.476563c-9.546874-.304687-20.289062 6.824219-20.289062 16.308594 0 9.34375 9.574219 17.050782 20.316406 16.355469-.011718-.394531-.027344-.789063-.027344-1.1875zm0 0" fill="#f0a479"/><path d="m198.882812 117.632812c-3.753906-3.476562-9.144531-5.570312-14.871093-5.207031v31.527344c0 .398437-.019531.792969-.03125 1.1875 5.746093.375 11.148437-1.726563 14.902343-5.207031zm0 0" fill="#e5966e"/><path d="m99.507812 140.121094c-3.324218-2.960938-5.417968-6.972656-5.417968-11.335938 0-4.257812 2.167968-8.035156 5.417968-10.882812v-5.425782c-9.546874-.304687-20.289062 6.824219-20.289062 16.308594 0 9.339844 9.574219 17.050782 20.316406 16.355469-.011718-.394531-.027344-.789063-.027344-1.1875zm0 0" fill="#e5966e"/><path d="m169.828125 89.910156c-1.292969-1.386718-3.398437-1.648437-4.988281-.609375-17.027344 11.125-39.550782 18.15625-61.679688 16.570313-2.246094-.171875-4.183594 1.621094-4.183594 3.886718v34.195313c0 21.976563 17.21875 42.050781 43.269532 42.050781 23.1875 0 42.050781-18.863281 42.050781-42.050781v-36.957031c0-2.042969.089844-1.4375-14.46875-17.085938zm0 0" fill="#f7b594"/><path d="m126.523438 143.953125v-39.453125c-7.664063 1.394531-15.535157 1.929688-23.363282 1.367188-2.246094-.167969-4.183594 1.621093-4.183594 3.890624v34.195313c0 21.976563 17.222657 42.050781 43.269532 42.050781 4.660156 0 9.140625-.773437 13.335937-2.179687-17.914062-5.761719-29.058593-22.195313-29.058593-39.871094zm0 0" fill="#f0a479"/><path d="m430.980469 149.191406-18.460938 7.953125c-26.277343-40.660156-67.691406-70.332031-114.597656-81.847656-4.027344-.988281-8.085937 1.476563-9.074219 5.496094-.984375 4.023437 1.476563 8.085937 5.496094 9.074219 42.398438 10.40625 79.933594 36.917968 104.199219 73.300781l-17.9375 7.726562c-9.277344 4-10.421875 16.730469-1.996094 22.3125l41.796875 27.691407c7.65625 5.074218 18.007812.609374 19.578125-8.4375l8.582031-49.394532c1.726563-9.953125-8.304687-17.875-17.585937-13.875zm-5.183594 57.289063-35.410156-23.464844 42.679687-18.390625zm0 0"/><path d="m222.792969 433.332031c-52.335938-8.875-98.089844-41.472656-123.882813-87.8125l20.75-8.9375c9.277344-4 10.417969-16.730469 1.996094-22.3125l-41.796875-27.695312c-7.675781-5.082031-18.011719-.589844-19.578125 8.4375l-8.582031 49.398437c-1.722657 9.917969 8.277343 17.886719 17.585937 13.875l15.78125-6.800781c27.855469 51 77.902344 86.917969 135.21875 96.640625 4.066406.691406 7.953125-2.046875 8.648438-6.140625.691406-4.085937-2.058594-7.960937-6.140625-8.652344zm-155.597657-90.480469 7.269532-41.855468 35.414062 23.464844zm0 0"/><path d="m387.703125 227.136719c-4.105469-.519531-7.859375 2.398437-8.375 6.507812-.519531 4.109375 2.394531 7.859375 6.507813 8.378907 63.371093 7.957031 111.164062 62.203124 111.164062 126.183593 0 30.128907-10.539062 57.835938-28.109375 79.652344-6.625-4.691406-2.363281-2.394531-67.375-27.574219v-11.453125c9.261719-7.554687 15.773437-18.351562 17.800781-30.640625 11.417969-2.328125 20.699219-11.835937 20.699219-23.554687 0-5.203125-1.847656-10.195313-5.25-14.347657v-18.628906c0-36.117187-29.382813-65.5-65.496094-65.5-36.117187 0-65.5 29.382813-65.5 65.5v19.050782c-3.398437 4.078124-5.246093 8.933593-5.246093 13.925781 0 11.664062 9.210937 21.207031 20.683593 23.550781 2.070313 12.808594 8.949219 23.847656 18.839844 31.382812v10.71875c-1.003906.386719-47.636719 18.464844-59.253906 22.972657-.050781.019531-.097657.039062-.144531.058593-.503907.207032-3.753907 1.597657-7.90625 4.539063-17.574219-21.816406-28.113282-49.523437-28.113282-79.652344 0-63.449219 47.347656-117.636719 110.132813-126.042969 4.105469-.550781 6.988281-4.324218 6.4375-8.433593-.546875-4.105469-4.328125-6.988281-8.429688-6.4375-69.714843 9.339843-123.140625 69.0625-123.140625 140.914062 0 78.09375 63.398438 142.183594 142.183594 142.183594 78.421875 0 142.1875-63.75 142.1875-142.183594 0-71.523437-53.4375-132.167969-124.296875-141.070312zm-1.1875 190.136719c0 4.890624-.203125 6.582031.890625 9.320312 1.894531 4.730469 5.300781 6.367188 8.800781 7.722656-2.8125 3.085938-5.832031 6.382813-9.035156 9.863282-9.65625 10.503906-26.160156 10.488281-35.808594 0-3.097656-3.367188-6.027343-6.566407-8.765625-9.566407l2.457032-.953125c9.027343-3.503906 7.992187-12.199218 7.992187-16.167968 10.730469 3.484374 22.804687 3.550781 33.46875-.21875zm-52.972656-78.179688c19.929687.625 41.851562-4.925781 60.808593-16.582031 5.699219 6.109375 9.085938 9.664062 10.640626 11.433593v36.058594c0 19.492188-15.90625 35.109375-35.105469 35.109375-21.835938 0-35.8125-16.6875-36.316407-34.125-.035156-1.121093-.027343 1.886719-.027343-31.894531zm86.453125 23.023438v-14.953126c2.824218 1.59375 5.019531 4.339844 5.019531 7.46875 0 3.15625-2.242187 5.910157-5.019531 7.484376zm-101.226563-40.457032c0-27.84375 22.652344-50.496094 50.496094-50.496094s50.496094 22.652344 50.496094 50.496094v8.183594c-.621094-2.824219-2.832031-5.171875-9.261719-12.027344-1.878906-2.003906-4.230469-4.511718-7.175781-7.675781-3.8125-4.09375-9.972657-4.847656-14.648438-1.789063-17.167969 11.210938-38.25 16.988282-57.832031 15.585938-5.140625-.386719-9.8125 2.722656-11.5625 7.386719-.003906 0-.429688.105469-.511719.125zm-5.246093 32.972656c0-2.960937 2.441406-5.5 5.019531-7.023437v14.507813c-2.753907-1.558594-5.019531-4.3125-5.019531-7.484376zm14.082031 85.792969c3.816406 4.199219 8.074219 8.859375 12.71875 13.910157 15.5625 16.921874 42.328125 16.921874 57.890625-.003907 4.753906-5.167969 9.105468-9.929687 12.988281-14.207031 48.347656 18.722656 44.417969 17.003906 47.492187 18.957031-24.316406 23.789063-56.300781 36.308594-88.878906 36.308594-32.234375 0-64.328125-12.289063-88.882812-36.308594 1.851562-1.171875 3.175781-1.78125 3.394531-1.878906zm0 0"/><path d="m142.1875 15c65.183594 0 119.546875 48.808594 126.453125 113.527344.4375 4.117187 4.125 7.101562 8.253906 6.664062 4.117188-.441406 7.101563-4.136718 6.660157-8.253906-3.699219-34.683594-20.046876-66.730469-46.023438-90.226562-26.167969-23.675782-60.03125-36.710938-95.34375-36.710938-78.402344 0-142.1875 63.785156-142.1875 142.1875 0 77.066406 61.570312 140.074219 138.324219 142.128906.035156 0 .070312.003906.105469.003906 71.710937 1.871094 133.515624-50.015624 144.296874-120.453124.628907-4.09375-2.183593-7.921876-6.277343-8.546876-4.105469-.632812-7.921875 2.183594-8.550781 6.277344-3.460938 22.628906-12.988282 43.203125-26.742188 60.171875-4.101562-2.890625-7.304688-4.265625-7.800781-4.46875-.050781-.023437-.097657-.042969-.148438-.0625-53.800781-20.835937-39.347656-15.234375-59.320312-22.972656v-11.453125c9.261719-7.558594 15.769531-18.351562 17.800781-30.640625 18.234375-3.71875 27.121094-23.664063 15.449219-37.902344v-18.628906c0-36.117187-29.382813-65.5-65.496094-65.5-36.117187 0-65.496094 29.382813-65.496094 65.5v19.050781c-3.402343 4.078125-5.25 8.933594-5.25 13.925782 0 6.28125 2.6875 12.253906 7.566407 16.820312 3.65625 3.421875 8.222656 5.730469 13.117187 6.730469 2.070313 12.808593 8.949219 23.851562 18.839844 31.382812v10.71875c-6.894531 2.671875-49.003907 19-59.253907 22.972657-.050781.019531-.097656.035156-.144531.058593-.503906.207031-3.753906 1.597657-7.90625 4.539063-17.574219-21.816406-28.113281-49.527344-28.113281-79.652344 0-70.132812 57.054688-127.1875 127.1875-127.1875zm.070312 164.09375c-22.273437 0-36.34375-17.375-36.34375-35.109375v-30.910156c19.84375.625 41.773438-4.878907 60.808594-16.582031 5.773438 6.1875 9.085938 9.664062 10.640625 11.429687v36.0625c0 19.226563-15.667969 35.109375-35.105469 35.109375zm50.109376-42.996094v-14.957031c6.65625 3.746094 6.683593 11.171875 0 14.957031zm-50.730469-90.953125c27.847656 0 50.5 22.652344 50.5 50.496094v8.1875c-.402344-1.832031-1.523438-3.371094-2.691407-4.796875-2.109374-2.578125-5.078124-5.589844-13.75-14.914062h-.003906c-.007812-.011719-.019531-.019532-.03125-.03125-3.820312-4.070313-9.957031-4.796876-14.613281-1.753907-17.300781 11.300781-38.378906 16.988281-57.828125 15.585938-5.097656-.382813-9.78125 2.679687-11.5625 7.378906-.171875.042969-.34375.089844-.515625.132813v-9.789063c0-27.84375 22.652344-50.496094 50.496094-50.496094zm-55.742188 83.46875c0-2.972656 2.460938-5.503906 5.019531-7.019531v14.503906c-2.78125-1.574218-5.019531-4.332031-5.019531-7.484375zm72.992188 62.640625c0 7.074219-.605469 13.054688 9.691406 17.042969-2.808594 3.078125-5.828125 6.375-9.035156 9.863281-9.65625 10.5-26.164063 10.488282-35.804688 0-3.109375-3.378906-6.039062-6.578125-8.769531-9.566406 2.664062-1.03125 4.816406-1.65625 7.085938-4.105469 3.917968-4.234375 3.363281-8.414062 3.363281-13.015625 10.144531 3.292969 22.285156 3.730469 33.46875-.21875zm-58.910157 23.152344c3.796876 4.179688 8.054688 8.839844 12.71875 13.910156 15.550782 16.914063 42.296876 16.957032 57.890626 0 4.765624-5.1875 9.117187-9.945312 12.988281-14.210937l44.082031 17.070312c.277344.125 1.535156.710938 3.273438 1.804688-24.15625 23.523437-56.996094 37.207031-91.90625 36.351562-31.375-.785156-62.109376-13.175781-85.71875-36.269531 1.851562-1.171875 3.175781-1.78125 3.394531-1.878906zm0 0"/></svg>